<?xml version="1.0" encoding="utf-8"?>
<!-- Generator: Adobe Illustrator 27.3.1, SVG Export Plug-In . SVG Version: 6.00 Build 0)  -->
<svg version="1.1" id="Layer_1" xmlns="http://www.w3.org/2000/svg" xmlns:xlink="http://www.w3.org/1999/xlink" x="0px" y="0px"
	 viewBox="0 0 311 500" style="enable-background:new 0 0 311 500;" xml:space="preserve">
<style type="text/css">
	.st0{stroke:#000000;stroke-width:15;stroke-miterlimit:10;}
</style>
<g>
	<g transform="translate(123.772414, 227.604589)">
		<g>
			<path class="st0" d="M-102.9-111.4v4.6h43.1V47.2c0,17.9,4.9,46.2,36.6,46.2c32.3,0,56.3-19.4,68.7-29.9l-1.8-3.1
				C25.4,74.3,8.8,83.8-11.2,83.8c-25.2,0-24.9-27.4-24.9-42.2v-148.4h57.9v-4.6h-57.9v-91.1h-4.6
				C-40.7-144.9-67.5-111.4-102.9-111.4z"/>
		</g>
	</g>
</g>
<g>
	<g transform="translate(268.928913, 147.388129)">
		<g>
			<path class="st0" d="M-32,215.1v21.5c0,63.7-48.6,73.3-87.1,73.3c-22.5,0-38.8-3.4-57.6-10.5v21.9c13.2,3.7,25.9,6.2,42.5,6.2
				c55.4,0,116.4-40,124.1-112.4h31.4v-4.6H-9.6c0.3-3.7,0.3-7.4,0.3-11.1V15h-23.4l0.6,195.5h-86.2v4.6H-32z"/>
		</g>
	</g>
</g>
</svg>
