<svg xmlns="http://www.w3.org/2000/svg" xmlns:xlink="http://www.w3.org/1999/xlink" width="500" zoomAndPan="magnify" viewBox="0 0 375 374.999991" height="500" preserveAspectRatio="xMidYMid meet" version="1.0"><defs><g/></defs><g fill="#000000" fill-opacity="1"><g transform="translate(123.772414, 227.604589)"><g><path d="M 0 -104.273438 L 0 -101.867188 L 22.457031 -101.867188 L 22.457031 -21.65625 C 22.457031 -12.351562 25.023438 2.40625 41.546875 2.40625 C 58.390625 2.40625 70.90625 -7.699219 77.320312 -13.15625 L 76.359375 -14.757812 C 66.894531 -7.539062 58.230469 -2.566406 47.804688 -2.566406 C 34.648438 -2.566406 34.8125 -16.84375 34.8125 -24.542969 L 34.8125 -101.867188 L 64.96875 -101.867188 L 64.96875 -104.273438 L 34.8125 -104.273438 L 34.8125 -151.753906 L 32.40625 -151.753906 C 32.40625 -121.757812 18.449219 -104.273438 0 -104.273438 Z M 0 -104.273438 "/></g></g></g><g fill="#000000" fill-opacity="1"><g transform="translate(268.928913, 147.388129)"><g><path d="M -32.566406 104.273438 L -32.566406 115.5 C -32.566406 148.707031 -57.910156 153.679688 -77.964844 153.679688 C -89.675781 153.679688 -98.175781 151.917969 -107.960938 148.226562 L -107.960938 159.617188 C -101.0625 161.542969 -94.488281 162.824219 -85.824219 162.824219 C -56.949219 162.824219 -25.1875 141.96875 -21.175781 104.273438 L -4.8125 104.273438 L -4.8125 101.867188 L -20.855469 101.867188 C -20.695312 99.941406 -20.695312 98.015625 -20.695312 96.089844 L -20.695312 0 L -32.886719 0 L -32.566406 101.867188 L -77.480469 101.867188 L -77.480469 104.273438 Z M -32.566406 104.273438 "/></g></g></g></svg>